<?xml version="1.0" encoding="UTF-8"?>
<svg xmlns="http://www.w3.org/2000/svg" viewBox="0 0 256 256" role="img" aria-label="LingXuZhi AirSword">
  <defs>
    <linearGradient id="bg" x1="40" y1="28" x2="220" y2="230" gradientUnits="userSpaceOnUse">
      <stop offset="0%" stop-color="#1E293B"/>
      <stop offset="100%" stop-color="#0F172A"/>
    </linearGradient>
    <linearGradient id="blade" x1="92" y1="48" x2="168" y2="210" gradientUnits="userSpaceOnUse">
      <stop offset="0%" stop-color="#93C5FD"/>
      <stop offset="55%" stop-color="#3B82F6"/>
      <stop offset="100%" stop-color="#1D4ED8"/>
    </linearGradient>
    <linearGradient id="amber" x1="150" y1="70" x2="210" y2="150" gradientUnits="userSpaceOnUse">
      <stop offset="0%" stop-color="#FCD34D"/>
      <stop offset="100%" stop-color="#F59E0B"/>
    </linearGradient>
    <filter id="glow" x="-30%" y="-30%" width="160%" height="160%">
      <feGaussianBlur stdDeviation="4" result="blur"/>
      <feMerge>
        <feMergeNode in="blur"/>
        <feMergeNode in="SourceGraphic"/>
      </feMerge>
    </filter>
  </defs>
  <rect x="12" y="12" width="232" height="232" rx="52" fill="url(#bg)"/>
  <rect x="12" y="12" width="232" height="232" rx="52" fill="none" stroke="#334155" stroke-width="3"/>
  <circle cx="128" cy="128" r="78" fill="none" stroke="#334155" stroke-width="2" stroke-dasharray="4 10" opacity="0.55"/>
  <g filter="url(#glow)">
    <path d="M86 168 C78 148, 84 128, 102 118 C112 112, 126 116, 138 124 C152 134, 164 152, 162 172 C160 190, 146 202, 126 204 C104 206, 92 190, 86 168 Z" fill="#334155" stroke="#60A5FA" stroke-width="3" stroke-linejoin="round"/>
    <path d="M108 122 C106 96, 108 72, 112 52 C114 42, 122 38, 128 44 C134 50, 134 64, 132 88 C130 108, 126 122, 120 132 Z" fill="url(#blade)" stroke="#93C5FD" stroke-width="2.5" stroke-linejoin="round"/>
    <path d="M128 128 C130 104, 134 78, 140 56 C144 44, 154 42, 158 52 C162 62, 160 80, 156 104 C152 124, 146 138, 138 146 Z" fill="url(#blade)" stroke="#93C5FD" stroke-width="2.5" stroke-linejoin="round"/>
    <path d="M148 148 C162 146, 172 154, 170 166 C168 176, 156 178, 146 172 Z" fill="#475569" stroke="#64748B" stroke-width="2"/>
    <path d="M156 168 C170 170, 178 180, 172 190 C166 198, 154 196, 150 186 Z" fill="#475569" stroke="#64748B" stroke-width="2"/>
    <path d="M98 140 C86 136, 78 144, 82 156 C86 166, 98 168, 108 160 Z" fill="#475569" stroke="#64748B" stroke-width="2"/>
  </g>
  <g transform="translate(168 48)">
    <path d="M0 18 L10 0 L20 18 L12 16 L14 28 L6 28 L8 16 Z" fill="url(#amber)"/>
    <circle cx="10" cy="8" r="3" fill="#FEF3C7"/>
  </g>
</svg>
